<svg width="200" height="200" viewBox="0 0 200 200" fill="none" xmlns="http://www.w3.org/2000/svg">
<mask id="mask0_7_237" style="mask-type:alpha" maskUnits="userSpaceOnUse" x="0" y="0" width="200" height="200">
<circle cx="100" cy="100" r="100" fill="#D9D9D9"/>
</mask>
<g mask="url(#mask0_7_237)">
<path d="M268.386 0H-67.938V199.123H268.386V0Z" fill="white"/>
<path d="M-67.938 19.6986V75.3472H26.6154L-67.938 19.6986Z" fill="#13135F"/>
<path d="M40.2537 75.3472H59.6076L-67.938 0V11.8192L40.2537 75.3472Z" fill="#FF0000"/>
<path d="M-30.6554 0L77.3363 66.469V0H-30.6554Z" fill="#12145B"/>
<path d="M268.413 179.257V124.101H174.845L268.413 179.257Z" fill="#13135F"/>
<path d="M161.213 124.101H141.849L268.413 199.074V187.137L161.213 124.101Z" fill="#FF0000"/>
<path d="M232.089 199.941L124.101 133.468V199.941H232.089Z" fill="#12145B"/>
<path d="M268.413 20.2039V75.3472L174.845 75.2802L268.413 20.2039Z" fill="#13135F"/>
<path d="M124.121 75.3472H146.085L268.413 0H246.203L124.121 75.3472Z" fill="#FF0000"/>
<path d="M231.173 0L124.121 65.9766V0H231.173Z" fill="#12145B"/>
<path d="M-67.9301 179.73V124.082H26.6233L-67.9301 179.73Z" fill="#13135F"/>
<path d="M77.297 124.072H55.333L-68 200H-45.7681L77.297 124.072Z" fill="#FF0000"/>
<path d="M-30.7006 199.911L77.2971 133.438V199.911H-30.7006Z" fill="#12145B"/>
<path d="M114.797 0H86.3583V199.941H114.797V0Z" fill="#FF0000"/>
<path d="M268.445 83.9673H-67.938V116.147H268.445V83.9673Z" fill="#FF0000"/>
</g>
</svg>
